{
	"asset":{
		"generator":"Khronos glTF Blender I/O v3.6.27",
		"version":"2.0"
	},
	"scene":0,
	"scenes":[
		{
			"name":"Scene",
			"nodes":[
				1
			]
		}
	],
	"nodes":[
		{
			"name":"EffectPoint",
			"rotation":[
				0.006385870277881622,
				-0.691343367099762,
				0.7224723100662231,
				0.006110615562647581
			],
			"scale":[
				1.5921976566314697,
				1.5921977758407593,
				1.5921977758407593
			],
			"translation":[
				0.025517906993627548,
				-1.0933942794799805,
				0.015284999273717403
			]
		},
		{
			"children":[
				0
			],
			"mesh":0,
			"name":"Bullet",
			"rotation":[
				0,
				-0.7071068286895752,
				0.7071068286895752,
				1.1520233300643667e-07
			],
			"scale":[
				0.19604642689228058,
				0.3712652623653412,
				0.19604642689228058
			]
		}
	],
	"materials":[
		{
			"doubleSided":true,
			"name":"Material.001",
			"pbrMetallicRoughness":{
				"baseColorFactor":[
					0.6218391060829163,
					0.294252872467041,
					0,
					1
				],
				"metallicFactor":0,
				"roughnessFactor":0.5
			}
		}
	],
	"meshes":[
		{
			"name":"Cylinder",
			"primitives":[
				{
					"attributes":{
						"POSITION":0,
						"NORMAL":1,
						"TEXCOORD_0":2
					},
					"indices":3,
					"material":0
				}
			]
		}
	],
	"accessors":[
		{
			"bufferView":0,
			"componentType":5126,
			"count":1600,
			"max":[
				1,
				1,
				1
			],
			"min":[
				-1,
				-1,
				-1
			],
			"type":"VEC3"
		},
		{
			"bufferView":1,
			"componentType":5126,
			"count":1600,
			"type":"VEC3"
		},
		{
			"bufferView":2,
			"componentType":5126,
			"count":1600,
			"type":"VEC2"
		},
		{
			"bufferView":3,
			"componentType":5123,
			"count":2484,
			"type":"SCALAR"
		}
	],
	"bufferViews":[
		{
			"buffer":0,
			"byteLength":19200,
			"byteOffset":0,
			"target":34962
		},
		{
			"buffer":0,
			"byteLength":19200,
			"byteOffset":19200,
			"target":34962
		},
		{
			"buffer":0,
			"byteLength":12800,
			"byteOffset":38400,
			"target":34962
		},
		{
			"buffer":0,
			"byteLength":4968,
			"byteOffset":51200,
			"target":34963
		}
	],
	"buffers":[
		{
			"byteLength":56168,
			"uri":"Bullet.bin"
		}
	]
}
