{
	"asset":{
		"generator":"Khronos glTF Blender I/O v3.6.27",
		"version":"2.0"
	},
	"scene":0,
	"scenes":[
		{
			"name":"Scene",
			"nodes":[
				1
			]
		}
	],
	"nodes":[
		{
			"name":"ShotPoint",
			"rotation":[
				0,
				0,
				1,
				1.6860936204090432e-14
			],
			"scale":[
				2.5081400871276855,
				2.5081400871276855,
				2.5081400871276855
			],
			"translation":[
				0.5377140045166016,
				-21.51146125793457,
				-131.09519958496094
			]
		},
		{
			"children":[
				0
			],
			"mesh":0,
			"name":"AssaultRifle",
			"rotation":[
				0,
				0,
				1,
				3.258413983076025e-07
			],
			"scale":[
				0.16115310788154602,
				0.16115310788154602,
				0.16115310788154602
			]
		}
	],
	"materials":[
		{
			"doubleSided":true,
			"name":"lambert1",
			"pbrMetallicRoughness":{
				"baseColorTexture":{
					"index":0
				},
				"metallicFactor":0,
				"roughnessFactor":0.5527864098548889
			}
		}
	],
	"meshes":[
		{
			"name":"Mesh.005",
			"primitives":[
				{
					"attributes":{
						"POSITION":0,
						"NORMAL":1,
						"TEXCOORD_0":2
					},
					"indices":3,
					"material":0
				}
			]
		}
	],
	"textures":[
		{
			"sampler":0,
			"source":0
		}
	],
	"images":[
		{
			"mimeType":"image/png",
			"name":"Polyart",
			"uri":"Polyart.png"
		}
	],
	"accessors":[
		{
			"bufferView":0,
			"componentType":5126,
			"count":1218,
			"max":[
				9.25334358215332,
				22.127084732055664,
				41.95848846435547
			],
			"min":[
				-9.08399772644043,
				-42.13383865356445,
				-134.20530700683594
			],
			"type":"VEC3"
		},
		{
			"bufferView":1,
			"componentType":5126,
			"count":1218,
			"type":"VEC3"
		},
		{
			"bufferView":2,
			"componentType":5126,
			"count":1218,
			"type":"VEC2"
		},
		{
			"bufferView":3,
			"componentType":5123,
			"count":2010,
			"type":"SCALAR"
		}
	],
	"bufferViews":[
		{
			"buffer":0,
			"byteLength":14616,
			"byteOffset":0,
			"target":34962
		},
		{
			"buffer":0,
			"byteLength":14616,
			"byteOffset":14616,
			"target":34962
		},
		{
			"buffer":0,
			"byteLength":9744,
			"byteOffset":29232,
			"target":34962
		},
		{
			"buffer":0,
			"byteLength":4020,
			"byteOffset":38976,
			"target":34963
		}
	],
	"samplers":[
		{
			"magFilter":9729,
			"minFilter":9987
		}
	],
	"buffers":[
		{
			"byteLength":42996,
			"uri":"Rifle.bin"
		}
	]
}
