{
	"asset":{
		"generator":"Khronos glTF Blender I/O v3.6.27",
		"version":"2.0"
	},
	"scene":0,
	"scenes":[
		{
			"name":"Scene",
			"nodes":[
				5
			]
		}
	],
	"nodes":[
		{
			"name":"magazine_Right",
			"rotation":[
				-0.16569377481937408,
				-0.7879669070243835,
				-0.08279240131378174,
				0.5871961116790771
			],
			"scale":[
				1.0000001192092896,
				1.0000001192092896,
				1
			],
			"translation":[
				-0.002779025584459305,
				0.3694595694541931,
				-0.07736720144748688
			]
		},
		{
			"name":"Trigger_Right",
			"rotation":[
				-0.1534014195203781,
				0.0076796612702310085,
				0.857356071472168,
				0.4912734031677246
			],
			"scale":[
				1.0000001192092896,
				1,
				1
			],
			"translation":[
				-0.19147315621376038,
				0.24273984134197235,
				0.0019472576677799225
			]
		},
		{
			"name":"ShotPoint",
			"rotation":[
				0.49777090549468994,
				-0.34195253252983093,
				0.714713454246521,
				0.3528133034706116
			],
			"scale":[
				0.06626170873641968,
				0.06626170873641968,
				0.06626169383525848
			],
			"translation":[
				-0.6574720740318298,
				1.1020522117614746,
				-0.37922847270965576
			]
		},
		{
			"children":[
				0,
				1,
				2
			],
			"name":"ArmPosition_Right",
			"rotation":[
				-0.10250072926282883,
				0.7471756935119629,
				-0.26358166337013245,
				0.601453959941864
			],
			"scale":[
				0.9999999403953552,
				0.9999998807907104,
				0.9999999403953552
			],
			"translation":[
				-0.01942741870880127,
				-0.027600765228271484,
				0.1692909598350525
			]
		},
		{
			"mesh":0,
			"name":"AssaultRifle",
			"skin":0
		},
		{
			"children":[
				4,
				3
			],
			"name":"Hips.001",
			"rotation":[
				-0.7071068286895752,
				0,
				0,
				0.7071068286895752
			]
		}
	],
	"animations":[
		{
			"channels":[
				{
					"sampler":0,
					"target":{
						"node":3,
						"path":"translation"
					}
				},
				{
					"sampler":1,
					"target":{
						"node":3,
						"path":"rotation"
					}
				},
				{
					"sampler":2,
					"target":{
						"node":3,
						"path":"scale"
					}
				},
				{
					"sampler":3,
					"target":{
						"node":0,
						"path":"translation"
					}
				},
				{
					"sampler":4,
					"target":{
						"node":0,
						"path":"rotation"
					}
				},
				{
					"sampler":5,
					"target":{
						"node":0,
						"path":"scale"
					}
				},
				{
					"sampler":6,
					"target":{
						"node":1,
						"path":"translation"
					}
				},
				{
					"sampler":7,
					"target":{
						"node":1,
						"path":"rotation"
					}
				},
				{
					"sampler":8,
					"target":{
						"node":1,
						"path":"scale"
					}
				}
			],
			"name":"Idle",
			"samplers":[
				{
					"input":7,
					"interpolation":"STEP",
					"output":8
				},
				{
					"input":7,
					"interpolation":"STEP",
					"output":9
				},
				{
					"input":7,
					"interpolation":"STEP",
					"output":10
				},
				{
					"input":11,
					"interpolation":"LINEAR",
					"output":12
				},
				{
					"input":7,
					"interpolation":"STEP",
					"output":13
				},
				{
					"input":7,
					"interpolation":"STEP",
					"output":14
				},
				{
					"input":7,
					"interpolation":"STEP",
					"output":15
				},
				{
					"input":7,
					"interpolation":"STEP",
					"output":16
				},
				{
					"input":7,
					"interpolation":"STEP",
					"output":17
				}
			]
		}
	],
	"materials":[
		{
			"doubleSided":true,
			"name":"lambert1.001",
			"pbrMetallicRoughness":{
				"baseColorTexture":{
					"index":0
				},
				"metallicFactor":0,
				"roughnessFactor":0.5527864098548889
			}
		}
	],
	"meshes":[
		{
			"name":"Scene.003",
			"primitives":[
				{
					"attributes":{
						"POSITION":0,
						"NORMAL":1,
						"TEXCOORD_0":2,
						"JOINTS_0":3,
						"WEIGHTS_0":4
					},
					"indices":5,
					"material":0
				}
			]
		}
	],
	"textures":[
		{
			"sampler":0,
			"source":0
		}
	],
	"images":[
		{
			"mimeType":"image/png",
			"name":"Polyart",
			"uri":"Polyart.png"
		}
	],
	"skins":[
		{
			"inverseBindMatrices":6,
			"joints":[
				3,
				0,
				1
			],
			"name":"Hips.001"
		}
	],
	"accessors":[
		{
			"bufferView":0,
			"componentType":5126,
			"count":1194,
			"max":[
				0.06558263301849365,
				0.4163695275783539,
				0.41359037160873413
			],
			"min":[
				-0.11779069900512695,
				-0.2262396514415741,
				-1.3480472564697266
			],
			"type":"VEC3"
		},
		{
			"bufferView":1,
			"componentType":5126,
			"count":1194,
			"type":"VEC3"
		},
		{
			"bufferView":2,
			"componentType":5126,
			"count":1194,
			"type":"VEC2"
		},
		{
			"bufferView":3,
			"componentType":5121,
			"count":1194,
			"type":"VEC4"
		},
		{
			"bufferView":4,
			"componentType":5126,
			"count":1194,
			"type":"VEC4"
		},
		{
			"bufferView":5,
			"componentType":5123,
			"count":2010,
			"type":"SCALAR"
		},
		{
			"bufferView":6,
			"componentType":5126,
			"count":3,
			"type":"MAT4"
		},
		{
			"bufferView":7,
			"componentType":5126,
			"count":2,
			"max":[
				2.5
			],
			"min":[
				0
			],
			"type":"SCALAR"
		},
		{
			"bufferView":8,
			"componentType":5126,
			"count":2,
			"type":"VEC3"
		},
		{
			"bufferView":9,
			"componentType":5126,
			"count":2,
			"type":"VEC4"
		},
		{
			"bufferView":10,
			"componentType":5126,
			"count":2,
			"type":"VEC3"
		},
		{
			"bufferView":11,
			"componentType":5126,
			"count":61,
			"max":[
				2.5
			],
			"min":[
				0
			],
			"type":"SCALAR"
		},
		{
			"bufferView":12,
			"componentType":5126,
			"count":61,
			"type":"VEC3"
		},
		{
			"bufferView":13,
			"componentType":5126,
			"count":2,
			"type":"VEC4"
		},
		{
			"bufferView":14,
			"componentType":5126,
			"count":2,
			"type":"VEC3"
		},
		{
			"bufferView":15,
			"componentType":5126,
			"count":2,
			"type":"VEC3"
		},
		{
			"bufferView":16,
			"componentType":5126,
			"count":2,
			"type":"VEC4"
		},
		{
			"bufferView":17,
			"componentType":5126,
			"count":2,
			"type":"VEC3"
		}
	],
	"bufferViews":[
		{
			"buffer":0,
			"byteLength":14328,
			"byteOffset":0,
			"target":34962
		},
		{
			"buffer":0,
			"byteLength":14328,
			"byteOffset":14328,
			"target":34962
		},
		{
			"buffer":0,
			"byteLength":9552,
			"byteOffset":28656,
			"target":34962
		},
		{
			"buffer":0,
			"byteLength":4776,
			"byteOffset":38208,
			"target":34962
		},
		{
			"buffer":0,
			"byteLength":19104,
			"byteOffset":42984,
			"target":34962
		},
		{
			"buffer":0,
			"byteLength":4020,
			"byteOffset":62088,
			"target":34963
		},
		{
			"buffer":0,
			"byteLength":192,
			"byteOffset":66108
		},
		{
			"buffer":0,
			"byteLength":8,
			"byteOffset":66300
		},
		{
			"buffer":0,
			"byteLength":24,
			"byteOffset":66308
		},
		{
			"buffer":0,
			"byteLength":32,
			"byteOffset":66332
		},
		{
			"buffer":0,
			"byteLength":24,
			"byteOffset":66364
		},
		{
			"buffer":0,
			"byteLength":244,
			"byteOffset":66388
		},
		{
			"buffer":0,
			"byteLength":732,
			"byteOffset":66632
		},
		{
			"buffer":0,
			"byteLength":32,
			"byteOffset":67364
		},
		{
			"buffer":0,
			"byteLength":24,
			"byteOffset":67396
		},
		{
			"buffer":0,
			"byteLength":24,
			"byteOffset":67420
		},
		{
			"buffer":0,
			"byteLength":32,
			"byteOffset":67444
		},
		{
			"buffer":0,
			"byteLength":24,
			"byteOffset":67476
		}
	],
	"samplers":[
		{
			"magFilter":9729,
			"minFilter":9987
		}
	],
	"buffers":[
		{
			"byteLength":67500,
			"uri":"RifleT.bin"
		}
	]
}
