{
	"asset":{
		"generator":"Khronos glTF Blender I/O v3.6.27",
		"version":"2.0"
	},
	"scene":0,
	"scenes":[
		{
			"name":"Scene",
			"nodes":[
				0,
				1,
				3,
				4,
				11,
				12,
				13,
				14,
				15
			]
		}
	],
	"nodes":[
		{
			"mesh":0,
			"name":"Cube.001",
			"rotation":[
				0,
				-1,
				0,
				1.6292067073209182e-07
			],
			"scale":[
				22.309249877929688,
				1.4982538223266602,
				22.309249877929688
			],
			"translation":[
				0.025516999885439873,
				-0.03199923038482666,
				-0.025516999885439873
			]
		},
		{
			"mesh":1,
			"name":"Cube.002",
			"scale":[
				0.03628122806549072,
				1,
				1
			],
			"translation":[
				20.756811141967773,
				21.359359741210938,
				-0.9416229724884033
			]
		},
		{
			"name":"HandPointR",
			"rotation":[
				0,
				-0.9989639520645142,
				0.04550875723361969,
				1.480444922208335e-07
			],
			"scale":[
				10.670599937438965,
				10.670600891113281,
				10.670600891113281
			],
			"translation":[
				-29.306507110595703,
				1.1582598686218262,
				92.06443786621094
			]
		},
		{
			"children":[
				2
			],
			"mesh":2,
			"name":"Arm1",
			"rotation":[
				0,
				-0.688170313835144,
				0.7255491614341736,
				2.267344996198517e-07
			],
			"scale":[
				0.16115310788154602,
				0.16115310788154602,
				0.16115310788154602
			],
			"translation":[
				3.6598472595214844,
				24.932937622070312,
				0.8129301071166992
			]
		},
		{
			"mesh":3,
			"name":"Arm1.001",
			"rotation":[
				0,
				-0.7071068286895752,
				0.7071068286895752,
				1.1520232590100932e-07
			],
			"scale":[
				0.16115310788154602,
				0.16115310788154602,
				0.16115310788154602
			],
			"translation":[
				-3.4749040603637695,
				24.93602752685547,
				0.8129310607910156
			]
		},
		{
			"name":"Injection Port01",
			"rotation":[
				0,
				-1,
				0,
				1.6292068494294654e-07
			],
			"scale":[
				2.7124626636505127,
				2.7124626636505127,
				2.7124626636505127
			],
			"translation":[
				5.004647254943848,
				-6.763125896453857,
				7.209604263305664
			]
		},
		{
			"name":"Injection Port02",
			"rotation":[
				0,
				-1,
				0,
				1.6292067073209182e-07
			],
			"scale":[
				2.3108737468719482,
				2.3108737468719482,
				2.3108737468719482
			],
			"translation":[
				4.92172384262085,
				-2.697985887527466,
				18.858789443969727
			]
		},
		{
			"name":"Injection Port03",
			"rotation":[
				0,
				-1,
				0,
				1.6292068494294654e-07
			],
			"scale":[
				2.705697774887085,
				2.705697774887085,
				2.705697774887085
			],
			"translation":[
				-5.311033248901367,
				-7.786086082458496,
				7.545076847076416
			]
		},
		{
			"name":"Injection Port04",
			"rotation":[
				0,
				-1,
				0,
				1.6292068494294654e-07
			],
			"scale":[
				2.580646276473999,
				2.580646276473999,
				2.580646276473999
			],
			"translation":[
				-5.338357925415039,
				-3.5971248149871826,
				19.193559646606445
			]
		},
		{
			"name":"WeaponRackL",
			"rotation":[
				0,
				-0.710464596748352,
				0.7037329077720642,
				6.261371510163372e-08
			],
			"scale":[
				4.692770957946777,
				4.692770957946777,
				4.692770957946777
			],
			"translation":[
				35.51453399658203,
				1.3715828657150269,
				-32.72809600830078
			]
		},
		{
			"name":"WeaponRackR",
			"rotation":[
				0,
				-0.710464596748352,
				0.7037329077720642,
				6.261377905047993e-08
			],
			"scale":[
				3.733990430831909,
				3.7339906692504883,
				3.7339906692504883
			],
			"translation":[
				-35.26628875732422,
				1.371556043624878,
				-32.72809600830078
			]
		},
		{
			"children":[
				5,
				6,
				7,
				8,
				9,
				10
			],
			"mesh":4,
			"name":"Backpack1",
			"rotation":[
				0,
				-0.7071068286895752,
				0.7071068286895752,
				1.1520232590100932e-07
			],
			"scale":[
				0.16115310788154602,
				0.16115310788154602,
				0.16115310788154602
			],
			"translation":[
				0.009029322303831577,
				20.171327590942383,
				6.718899726867676
			]
		},
		{
			"mesh":5,
			"name":"Body1",
			"rotation":[
				0,
				-0.7071068286895752,
				0.7071068286895752,
				1.1520232590100932e-07
			],
			"scale":[
				0.16115310788154602,
				0.16115310788154602,
				0.16115310788154602
			],
			"translation":[
				-0.0029540061950683594,
				19.07501983642578,
				-0.7518024444580078
			]
		},
		{
			"mesh":6,
			"name":"head1",
			"rotation":[
				0,
				-0.7071068286895752,
				0.7071068286895752,
				1.1520232590100932e-07
			],
			"scale":[
				0.16115310788154602,
				0.16115310788154602,
				0.16115310788154602
			],
			"translation":[
				0.06827676296234131,
				23.807212829589844,
				0.8332376480102539
			]
		},
		{
			"mesh":7,
			"name":"Leg1",
			"rotation":[
				0,
				-0.7071068286895752,
				0.7071068286895752,
				1.1520232590100932e-07
			],
			"scale":[
				0.16115310788154602,
				0.16115310788154602,
				0.16115310788154602
			],
			"translation":[
				2.4248085021972656,
				15.798240661621094,
				-0.37224578857421875
			]
		},
		{
			"mesh":8,
			"name":"Leg1.001",
			"rotation":[
				0,
				-0.7071068286895752,
				0.7071068286895752,
				1.1520232590100932e-07
			],
			"scale":[
				0.16115310788154602,
				0.16115310788154602,
				0.16115310788154602
			],
			"translation":[
				-2.4676055908203125,
				15.93035888671875,
				-0.4784212112426758
			]
		}
	],
	"materials":[
		{
			"doubleSided":true,
			"name":"Material",
			"pbrMetallicRoughness":{
				"baseColorFactor":[
					0.22528743743896484,
					0.04937094449996948,
					0,
					1
				],
				"metallicFactor":0.19266055524349213,
				"roughnessFactor":0.5
			}
		},
		{
			"doubleSided":true,
			"name":"lambert1",
			"pbrMetallicRoughness":{
				"baseColorTexture":{
					"index":0
				},
				"metallicFactor":0,
				"roughnessFactor":0.5527864098548889
			}
		}
	],
	"meshes":[
		{
			"name":"Cube.001",
			"primitives":[
				{
					"attributes":{
						"POSITION":0,
						"NORMAL":1,
						"TEXCOORD_0":2
					},
					"indices":3
				}
			]
		},
		{
			"name":"Cube.007",
			"primitives":[
				{
					"attributes":{
						"POSITION":4,
						"NORMAL":5,
						"TEXCOORD_0":6
					},
					"indices":7,
					"material":0
				}
			]
		},
		{
			"name":"Mesh.003",
			"primitives":[
				{
					"attributes":{
						"POSITION":8,
						"NORMAL":9,
						"TEXCOORD_0":10,
						"TANGENT":11
					},
					"indices":12,
					"material":1
				}
			]
		},
		{
			"name":"Mesh.006",
			"primitives":[
				{
					"attributes":{
						"POSITION":13,
						"NORMAL":14,
						"TEXCOORD_0":15,
						"TANGENT":16
					},
					"indices":17,
					"material":1
				}
			]
		},
		{
			"name":"Mesh.002",
			"primitives":[
				{
					"attributes":{
						"POSITION":18,
						"NORMAL":19,
						"TEXCOORD_0":20,
						"TANGENT":21
					},
					"indices":22,
					"material":1
				}
			]
		},
		{
			"name":"Mesh.001",
			"primitives":[
				{
					"attributes":{
						"POSITION":23,
						"NORMAL":24,
						"TEXCOORD_0":25,
						"TANGENT":26
					},
					"indices":27,
					"material":1
				}
			]
		},
		{
			"name":"Mesh",
			"primitives":[
				{
					"attributes":{
						"POSITION":28,
						"NORMAL":29,
						"TEXCOORD_0":30
					},
					"indices":31,
					"material":1
				}
			]
		},
		{
			"name":"Mesh.004",
			"primitives":[
				{
					"attributes":{
						"POSITION":32,
						"NORMAL":33,
						"TEXCOORD_0":34,
						"TANGENT":35
					},
					"indices":36,
					"material":1
				}
			]
		},
		{
			"name":"Mesh.007",
			"primitives":[
				{
					"attributes":{
						"POSITION":37,
						"NORMAL":38,
						"TEXCOORD_0":39,
						"TANGENT":40
					},
					"indices":41,
					"material":1
				}
			]
		}
	],
	"textures":[
		{
			"sampler":0,
			"source":0
		}
	],
	"images":[
		{
			"mimeType":"image/png",
			"name":"Polyart",
			"uri":"Polyart.png"
		}
	],
	"accessors":[
		{
			"bufferView":0,
			"componentType":5126,
			"count":135,
			"max":[
				-0.554283857345581,
				15.498602867126465,
				-0.9628561735153198
			],
			"min":[
				-0.8442625999450684,
				7.985230445861816,
				-0.9978342056274414
			],
			"type":"VEC3"
		},
		{
			"bufferView":1,
			"componentType":5126,
			"count":135,
			"type":"VEC3"
		},
		{
			"bufferView":2,
			"componentType":5126,
			"count":135,
			"type":"VEC2"
		},
		{
			"bufferView":3,
			"componentType":5123,
			"count":273,
			"type":"SCALAR"
		},
		{
			"bufferView":4,
			"componentType":5126,
			"count":807,
			"max":[
				43.492557525634766,
				49.51677703857422,
				28.991147994995117
			],
			"min":[
				-2381.01513671875,
				-26.89321517944336,
				-61.150177001953125
			],
			"type":"VEC3"
		},
		{
			"bufferView":5,
			"componentType":5126,
			"count":807,
			"type":"VEC3"
		},
		{
			"bufferView":6,
			"componentType":5126,
			"count":807,
			"type":"VEC2"
		},
		{
			"bufferView":7,
			"componentType":5123,
			"count":1368,
			"type":"SCALAR"
		},
		{
			"bufferView":8,
			"componentType":5126,
			"count":1185,
			"max":[
				0.5901908874511719,
				27.057771682739258,
				113.2455062866211
			],
			"min":[
				-47.43050765991211,
				-24.128143310546875,
				-14.305793762207031
			],
			"type":"VEC3"
		},
		{
			"bufferView":9,
			"componentType":5126,
			"count":1185,
			"type":"VEC3"
		},
		{
			"bufferView":10,
			"componentType":5126,
			"count":1185,
			"type":"VEC2"
		},
		{
			"bufferView":11,
			"componentType":5126,
			"count":1185,
			"type":"VEC4"
		},
		{
			"bufferView":12,
			"componentType":5123,
			"count":1740,
			"type":"SCALAR"
		},
		{
			"bufferView":13,
			"componentType":5126,
			"count":1185,
			"max":[
				49.816200256347656,
				27.666318893432617,
				112.87018585205078
			],
			"min":[
				-0.4559173583984375,
				-23.51959228515625,
				-14.286693572998047
			],
			"type":"VEC3"
		},
		{
			"bufferView":14,
			"componentType":5126,
			"count":1185,
			"type":"VEC3"
		},
		{
			"bufferView":15,
			"componentType":5126,
			"count":1185,
			"type":"VEC2"
		},
		{
			"bufferView":16,
			"componentType":5126,
			"count":1185,
			"type":"VEC4"
		},
		{
			"bufferView":17,
			"componentType":5123,
			"count":1740,
			"type":"SCALAR"
		},
		{
			"bufferView":18,
			"componentType":5126,
			"count":868,
			"max":[
				36.97389221191406,
				19.512271881103516,
				41.17505645751953
			],
			"min":[
				-36.8251953125,
				-16.840911865234375,
				-45.74046325683594
			],
			"type":"VEC3"
		},
		{
			"bufferView":19,
			"componentType":5126,
			"count":868,
			"type":"VEC3"
		},
		{
			"bufferView":20,
			"componentType":5126,
			"count":868,
			"type":"VEC2"
		},
		{
			"bufferView":21,
			"componentType":5126,
			"count":868,
			"type":"VEC4"
		},
		{
			"bufferView":22,
			"componentType":5123,
			"count":1320,
			"type":"SCALAR"
		},
		{
			"bufferView":23,
			"componentType":5126,
			"count":1286,
			"max":[
				27.749141693115234,
				28.222705841064453,
				39.22367858886719
			],
			"min":[
				-27.749141693115234,
				-35.60694122314453,
				-39.03321838378906
			],
			"type":"VEC3"
		},
		{
			"bufferView":24,
			"componentType":5126,
			"count":1286,
			"type":"VEC3"
		},
		{
			"bufferView":25,
			"componentType":5126,
			"count":1286,
			"type":"VEC2"
		},
		{
			"bufferView":26,
			"componentType":5126,
			"count":1286,
			"type":"VEC4"
		},
		{
			"bufferView":27,
			"componentType":5123,
			"count":1902,
			"type":"SCALAR"
		},
		{
			"bufferView":28,
			"componentType":5126,
			"count":714,
			"max":[
				16.899171829223633,
				25.996946334838867,
				1.3829345703125
			],
			"min":[
				-16.015153884887695,
				-17.540250778198242,
				-39.27879333496094
			],
			"type":"VEC3"
		},
		{
			"bufferView":29,
			"componentType":5126,
			"count":714,
			"type":"VEC3"
		},
		{
			"bufferView":30,
			"componentType":5126,
			"count":714,
			"type":"VEC2"
		},
		{
			"bufferView":31,
			"componentType":5123,
			"count":1080,
			"type":"SCALAR"
		},
		{
			"bufferView":32,
			"componentType":5126,
			"count":968,
			"max":[
				7.422231674194336,
				29.144542694091797,
				111.8884048461914
			],
			"min":[
				-36.221473693847656,
				-28.185821533203125,
				-8.361015319824219
			],
			"type":"VEC3"
		},
		{
			"bufferView":33,
			"componentType":5126,
			"count":968,
			"type":"VEC3"
		},
		{
			"bufferView":34,
			"componentType":5126,
			"count":968,
			"type":"VEC2"
		},
		{
			"bufferView":35,
			"componentType":5126,
			"count":968,
			"type":"VEC4"
		},
		{
			"bufferView":36,
			"componentType":5123,
			"count":1479,
			"type":"SCALAR"
		},
		{
			"bufferView":37,
			"componentType":5126,
			"count":969,
			"max":[
				35.81810760498047,
				28.599288940429688,
				112.7082290649414
			],
			"min":[
				-7.6896209716796875,
				-28.88532066345215,
				-7.541191101074219
			],
			"type":"VEC3"
		},
		{
			"bufferView":38,
			"componentType":5126,
			"count":969,
			"type":"VEC3"
		},
		{
			"bufferView":39,
			"componentType":5126,
			"count":969,
			"type":"VEC2"
		},
		{
			"bufferView":40,
			"componentType":5126,
			"count":969,
			"type":"VEC4"
		},
		{
			"bufferView":41,
			"componentType":5123,
			"count":1479,
			"type":"SCALAR"
		}
	],
	"bufferViews":[
		{
			"buffer":0,
			"byteLength":1620,
			"byteOffset":0,
			"target":34962
		},
		{
			"buffer":0,
			"byteLength":1620,
			"byteOffset":1620,
			"target":34962
		},
		{
			"buffer":0,
			"byteLength":1080,
			"byteOffset":3240,
			"target":34962
		},
		{
			"buffer":0,
			"byteLength":546,
			"byteOffset":4320,
			"target":34963
		},
		{
			"buffer":0,
			"byteLength":9684,
			"byteOffset":4868,
			"target":34962
		},
		{
			"buffer":0,
			"byteLength":9684,
			"byteOffset":14552,
			"target":34962
		},
		{
			"buffer":0,
			"byteLength":6456,
			"byteOffset":24236,
			"target":34962
		},
		{
			"buffer":0,
			"byteLength":2736,
			"byteOffset":30692,
			"target":34963
		},
		{
			"buffer":0,
			"byteLength":14220,
			"byteOffset":33428,
			"target":34962
		},
		{
			"buffer":0,
			"byteLength":14220,
			"byteOffset":47648,
			"target":34962
		},
		{
			"buffer":0,
			"byteLength":9480,
			"byteOffset":61868,
			"target":34962
		},
		{
			"buffer":0,
			"byteLength":18960,
			"byteOffset":71348,
			"target":34962
		},
		{
			"buffer":0,
			"byteLength":3480,
			"byteOffset":90308,
			"target":34963
		},
		{
			"buffer":0,
			"byteLength":14220,
			"byteOffset":93788,
			"target":34962
		},
		{
			"buffer":0,
			"byteLength":14220,
			"byteOffset":108008,
			"target":34962
		},
		{
			"buffer":0,
			"byteLength":9480,
			"byteOffset":122228,
			"target":34962
		},
		{
			"buffer":0,
			"byteLength":18960,
			"byteOffset":131708,
			"target":34962
		},
		{
			"buffer":0,
			"byteLength":3480,
			"byteOffset":150668,
			"target":34963
		},
		{
			"buffer":0,
			"byteLength":10416,
			"byteOffset":154148,
			"target":34962
		},
		{
			"buffer":0,
			"byteLength":10416,
			"byteOffset":164564,
			"target":34962
		},
		{
			"buffer":0,
			"byteLength":6944,
			"byteOffset":174980,
			"target":34962
		},
		{
			"buffer":0,
			"byteLength":13888,
			"byteOffset":181924,
			"target":34962
		},
		{
			"buffer":0,
			"byteLength":2640,
			"byteOffset":195812,
			"target":34963
		},
		{
			"buffer":0,
			"byteLength":15432,
			"byteOffset":198452,
			"target":34962
		},
		{
			"buffer":0,
			"byteLength":15432,
			"byteOffset":213884,
			"target":34962
		},
		{
			"buffer":0,
			"byteLength":10288,
			"byteOffset":229316,
			"target":34962
		},
		{
			"buffer":0,
			"byteLength":20576,
			"byteOffset":239604,
			"target":34962
		},
		{
			"buffer":0,
			"byteLength":3804,
			"byteOffset":260180,
			"target":34963
		},
		{
			"buffer":0,
			"byteLength":8568,
			"byteOffset":263984,
			"target":34962
		},
		{
			"buffer":0,
			"byteLength":8568,
			"byteOffset":272552,
			"target":34962
		},
		{
			"buffer":0,
			"byteLength":5712,
			"byteOffset":281120,
			"target":34962
		},
		{
			"buffer":0,
			"byteLength":2160,
			"byteOffset":286832,
			"target":34963
		},
		{
			"buffer":0,
			"byteLength":11616,
			"byteOffset":288992,
			"target":34962
		},
		{
			"buffer":0,
			"byteLength":11616,
			"byteOffset":300608,
			"target":34962
		},
		{
			"buffer":0,
			"byteLength":7744,
			"byteOffset":312224,
			"target":34962
		},
		{
			"buffer":0,
			"byteLength":15488,
			"byteOffset":319968,
			"target":34962
		},
		{
			"buffer":0,
			"byteLength":2958,
			"byteOffset":335456,
			"target":34963
		},
		{
			"buffer":0,
			"byteLength":11628,
			"byteOffset":338416,
			"target":34962
		},
		{
			"buffer":0,
			"byteLength":11628,
			"byteOffset":350044,
			"target":34962
		},
		{
			"buffer":0,
			"byteLength":7752,
			"byteOffset":361672,
			"target":34962
		},
		{
			"buffer":0,
			"byteLength":15504,
			"byteOffset":369424,
			"target":34962
		},
		{
			"buffer":0,
			"byteLength":2958,
			"byteOffset":384928,
			"target":34963
		}
	],
	"samplers":[
		{
			"magFilter":9729,
			"minFilter":9987
		}
	],
	"buffers":[
		{
			"byteLength":387888,
			"uri":"Title.bin"
		}
	]
}
