{
	"asset":{
		"generator":"Khronos glTF Blender I/O v3.6.27",
		"version":"2.0"
	},
	"scene":0,
	"scenes":[
		{
			"name":"Scene",
			"nodes":[
				1
			]
		}
	],
	"nodes":[
		{
			"name":"ShotPoint",
			"rotation":[
				-0.13308663666248322,
				0,
				0,
				0.9911044836044312
			],
			"scale":[
				0.85976243019104,
				0.8597623705863953,
				0.8597623705863953
			],
			"translation":[
				0.09869523346424103,
				0.8003835082054138,
				-3.6479294300079346
			]
		},
		{
			"children":[
				0
			],
			"mesh":0,
			"name":"Cube",
			"rotation":[
				0.4721669852733612,
				0,
				0,
				0.8815091252326965
			],
			"scale":[
				2.5365796089172363,
				2.5365796089172363,
				2.5365796089172363
			],
			"translation":[
				-0.21117115020751953,
				0.01995396800339222,
				-0.014817715622484684
			]
		}
	],
	"meshes":[
		{
			"name":"Cube",
			"primitives":[
				{
					"attributes":{
						"POSITION":0,
						"NORMAL":1,
						"TEXCOORD_0":2
					},
					"indices":3
				}
			]
		}
	],
	"accessors":[
		{
			"bufferView":0,
			"componentType":5126,
			"count":206,
			"max":[
				1.4408323764801025,
				1.7923530340194702,
				0.5261610150337219
			],
			"min":[
				-1.007033109664917,
				-0.40405163168907166,
				-3.672325849533081
			],
			"type":"VEC3"
		},
		{
			"bufferView":1,
			"componentType":5126,
			"count":206,
			"type":"VEC3"
		},
		{
			"bufferView":2,
			"componentType":5126,
			"count":206,
			"type":"VEC2"
		},
		{
			"bufferView":3,
			"componentType":5123,
			"count":336,
			"type":"SCALAR"
		}
	],
	"bufferViews":[
		{
			"buffer":0,
			"byteLength":2472,
			"byteOffset":0,
			"target":34962
		},
		{
			"buffer":0,
			"byteLength":2472,
			"byteOffset":2472,
			"target":34962
		},
		{
			"buffer":0,
			"byteLength":1648,
			"byteOffset":4944,
			"target":34962
		},
		{
			"buffer":0,
			"byteLength":672,
			"byteOffset":6592,
			"target":34963
		}
	],
	"buffers":[
		{
			"byteLength":7264,
			"uri":"Rocket.bin"
		}
	]
}
