{
	"asset":{
		"generator":"Khronos glTF Blender I/O v3.6.27",
		"version":"2.0"
	},
	"scene":0,
	"scenes":[
		{
			"name":"Scene",
			"nodes":[
				6
			]
		}
	],
	"nodes":[
		{
			"mesh":0,
			"name":"Cube.002",
			"rotation":[
				-0.018273774534463882,
				0,
				0,
				0.9998330473899841
			],
			"scale":[
				1.342857003211975,
				1.0436173677444458,
				1.0436173677444458
			],
			"translation":[
				0.6332029104232788,
				-0.022955499589443207,
				1.4340182542800903
			]
		},
		{
			"mesh":1,
			"name":"Cube.003",
			"rotation":[
				-0.018273796886205673,
				0,
				0,
				0.9998330473899841
			],
			"scale":[
				0.9787318110466003,
				0.9943990707397461,
				0.8414379954338074
			],
			"translation":[
				-0.49572697281837463,
				0.014777208678424358,
				1.4423073530197144
			]
		},
		{
			"mesh":2,
			"name":"Cube.004",
			"rotation":[
				-0.015513078309595585,
				0,
				0,
				0.9998796582221985
			],
			"scale":[
				0.9963039755821228,
				0.9926387667655945,
				0.994290828704834
			],
			"translation":[
				-0.016571523621678352,
				-0.006955744698643684,
				1.4438854455947876
			]
		},
		{
			"name":"ShotPoint",
			"rotation":[
				0,
				0.9970639944076538,
				0.07657293230295181,
				1.659333292991505e-07
			],
			"scale":[
				0.33686304092407227,
				1,
				1
			],
			"translation":[
				-0.03793122246861458,
				0.021337751299142838,
				1.49173104763031
			]
		},
		{
			"children":[
				0,
				1,
				2,
				3
			],
			"mesh":3,
			"name":"Cube.001",
			"rotation":[
				0,
				-0.9999796748161316,
				-0.00637701153755188,
				5.202736588216794e-07
			],
			"scale":[
				2.9503626823425293,
				0.9283313155174255,
				0.9283313155174255
			],
			"translation":[
				-0.056505680084228516,
				1.019935131072998,
				0.004355132579803467
			]
		},
		{
			"children":[
				4
			],
			"name":"Empty",
			"rotation":[
				0.4135464131832123,
				0,
				0,
				0.9104830622673035
			],
			"translation":[
				0.22615505754947662,
				1.246138095855713,
				1.2149003744125366
			]
		},
		{
			"children":[
				5
			],
			"mesh":4,
			"name":"Cube.005",
			"translation":[
				-0.23746587336063385,
				-0.7456307411193848,
				0.5544061660766602
			]
		}
	],
	"meshes":[
		{
			"name":"Cube.002",
			"primitives":[
				{
					"attributes":{
						"POSITION":0,
						"NORMAL":1,
						"TEXCOORD_0":2
					},
					"indices":3
				}
			]
		},
		{
			"name":"Cube.003",
			"primitives":[
				{
					"attributes":{
						"POSITION":4,
						"NORMAL":5,
						"TEXCOORD_0":6
					},
					"indices":7
				}
			]
		},
		{
			"name":"Cube.004",
			"primitives":[
				{
					"attributes":{
						"POSITION":8,
						"NORMAL":9,
						"TEXCOORD_0":10
					},
					"indices":11
				}
			]
		},
		{
			"name":"Cube.001",
			"primitives":[
				{
					"attributes":{
						"POSITION":12,
						"NORMAL":13,
						"TEXCOORD_0":14
					},
					"indices":15
				}
			]
		},
		{
			"name":"Cube.005",
			"primitives":[
				{
					"attributes":{
						"POSITION":16,
						"NORMAL":17,
						"TEXCOORD_0":18
					},
					"indices":19
				}
			]
		}
	],
	"accessors":[
		{
			"bufferView":0,
			"componentType":5126,
			"count":36,
			"max":[
				0.1091359481215477,
				0.895286500453949,
				0.15130974352359772
			],
			"min":[
				-0.2824741005897522,
				-0.8475542664527893,
				-0.16332633793354034
			],
			"type":"VEC3"
		},
		{
			"bufferView":1,
			"componentType":5126,
			"count":36,
			"type":"VEC3"
		},
		{
			"bufferView":2,
			"componentType":5126,
			"count":36,
			"type":"VEC2"
		},
		{
			"bufferView":3,
			"componentType":5123,
			"count":60,
			"type":"SCALAR"
		},
		{
			"bufferView":4,
			"componentType":5126,
			"count":36,
			"max":[
				0.21672844886779785,
				0.9025005102157593,
				0.17514802515506744
			],
			"min":[
				-0.3186846673488617,
				-0.9273039102554321,
				-0.20152238011360168
			],
			"type":"VEC3"
		},
		{
			"bufferView":5,
			"componentType":5126,
			"count":36,
			"type":"VEC3"
		},
		{
			"bufferView":6,
			"componentType":5126,
			"count":36,
			"type":"VEC2"
		},
		{
			"bufferView":7,
			"componentType":5123,
			"count":60,
			"type":"SCALAR"
		},
		{
			"bufferView":8,
			"componentType":5126,
			"count":24,
			"max":[
				0.22710439562797546,
				0.9226202964782715,
				0.14466966688632965
			],
			"min":[
				-0.22737625241279602,
				-0.907890260219574,
				-0.16588839888572693
			],
			"type":"VEC3"
		},
		{
			"bufferView":9,
			"componentType":5126,
			"count":24,
			"type":"VEC3"
		},
		{
			"bufferView":10,
			"componentType":5126,
			"count":24,
			"type":"VEC2"
		},
		{
			"bufferView":11,
			"componentType":5123,
			"count":36,
			"type":"SCALAR"
		},
		{
			"bufferView":12,
			"componentType":5126,
			"count":350,
			"max":[
				0.9625889658927917,
				1.1018813848495483,
				1.2996296882629395
			],
			"min":[
				-0.986743688583374,
				-1.1231310367584229,
				-1.2701812982559204
			],
			"type":"VEC3"
		},
		{
			"bufferView":13,
			"componentType":5126,
			"count":350,
			"type":"VEC3"
		},
		{
			"bufferView":14,
			"componentType":5126,
			"count":350,
			"type":"VEC2"
		},
		{
			"bufferView":15,
			"componentType":5123,
			"count":648,
			"type":"SCALAR"
		},
		{
			"bufferView":16,
			"componentType":5126,
			"count":593,
			"max":[
				0.8102664351463318,
				1.766249179840088,
				1.7181470394134521
			],
			"min":[
				-0.606106162071228,
				-3.0287044048309326,
				-1.109377384185791
			],
			"type":"VEC3"
		},
		{
			"bufferView":17,
			"componentType":5126,
			"count":593,
			"type":"VEC3"
		},
		{
			"bufferView":18,
			"componentType":5126,
			"count":593,
			"type":"VEC2"
		},
		{
			"bufferView":19,
			"componentType":5123,
			"count":1020,
			"type":"SCALAR"
		}
	],
	"bufferViews":[
		{
			"buffer":0,
			"byteLength":432,
			"byteOffset":0,
			"target":34962
		},
		{
			"buffer":0,
			"byteLength":432,
			"byteOffset":432,
			"target":34962
		},
		{
			"buffer":0,
			"byteLength":288,
			"byteOffset":864,
			"target":34962
		},
		{
			"buffer":0,
			"byteLength":120,
			"byteOffset":1152,
			"target":34963
		},
		{
			"buffer":0,
			"byteLength":432,
			"byteOffset":1272,
			"target":34962
		},
		{
			"buffer":0,
			"byteLength":432,
			"byteOffset":1704,
			"target":34962
		},
		{
			"buffer":0,
			"byteLength":288,
			"byteOffset":2136,
			"target":34962
		},
		{
			"buffer":0,
			"byteLength":120,
			"byteOffset":2424,
			"target":34963
		},
		{
			"buffer":0,
			"byteLength":288,
			"byteOffset":2544,
			"target":34962
		},
		{
			"buffer":0,
			"byteLength":288,
			"byteOffset":2832,
			"target":34962
		},
		{
			"buffer":0,
			"byteLength":192,
			"byteOffset":3120,
			"target":34962
		},
		{
			"buffer":0,
			"byteLength":72,
			"byteOffset":3312,
			"target":34963
		},
		{
			"buffer":0,
			"byteLength":4200,
			"byteOffset":3384,
			"target":34962
		},
		{
			"buffer":0,
			"byteLength":4200,
			"byteOffset":7584,
			"target":34962
		},
		{
			"buffer":0,
			"byteLength":2800,
			"byteOffset":11784,
			"target":34962
		},
		{
			"buffer":0,
			"byteLength":1296,
			"byteOffset":14584,
			"target":34963
		},
		{
			"buffer":0,
			"byteLength":7116,
			"byteOffset":15880,
			"target":34962
		},
		{
			"buffer":0,
			"byteLength":7116,
			"byteOffset":22996,
			"target":34962
		},
		{
			"buffer":0,
			"byteLength":4744,
			"byteOffset":30112,
			"target":34962
		},
		{
			"buffer":0,
			"byteLength":2040,
			"byteOffset":34856,
			"target":34963
		}
	],
	"buffers":[
		{
			"byteLength":36896,
			"uri":"Rocket2.bin"
		}
	]
}
