{
	"asset":{
		"generator":"Khronos glTF Blender I/O v3.6.27",
		"version":"2.0"
	},
	"scene":0,
	"scenes":[
		{
			"name":"Scene",
			"nodes":[
				3
			]
		}
	],
	"nodes":[
		{
			"name":"ShotPoint",
			"rotation":[
				0.009540515020489693,
				0,
				0,
				0.9999545812606812
			],
			"scale":[
				0.8324889540672302,
				0.6901534795761108,
				0.5154343843460083
			],
			"translation":[
				-1.1505978107452393,
				0.03443777561187744,
				-4.203187942504883
			]
		},
		{
			"children":[
				0
			],
			"mesh":0,
			"name":"Cube",
			"translation":[
				-0.030785083770751953,
				0.031052976846694946,
				0.002644473686814308
			]
		},
		{
			"children":[
				1
			],
			"name":"Empty",
			"rotation":[
				0.4135464131832123,
				0,
				0,
				0.9104830622673035
			],
			"translation":[
				-0.637096643447876,
				0.7406894564628601,
				0.795207142829895
			]
		},
		{
			"children":[
				2
			],
			"mesh":1,
			"name":"Cube.006",
			"translation":[
				-0.23746587336063385,
				-0.7456307411193848,
				0.5544061660766602
			]
		}
	],
	"meshes":[
		{
			"name":"Cube",
			"primitives":[
				{
					"attributes":{
						"POSITION":0,
						"NORMAL":1,
						"TEXCOORD_0":2
					},
					"indices":3
				}
			]
		},
		{
			"name":"Cube.006",
			"primitives":[
				{
					"attributes":{
						"POSITION":4,
						"NORMAL":5,
						"TEXCOORD_0":6
					},
					"indices":7
				}
			]
		}
	],
	"accessors":[
		{
			"bufferView":0,
			"componentType":5126,
			"count":1420,
			"max":[
				-4.5418739318847656e-05,
				1.602117657661438,
				3.817842483520508
			],
			"min":[
				-3.2911603450775146,
				-1.586295247077942,
				-10.861406326293945
			],
			"type":"VEC3"
		},
		{
			"bufferView":1,
			"componentType":5126,
			"count":1420,
			"type":"VEC3"
		},
		{
			"bufferView":2,
			"componentType":5126,
			"count":1420,
			"type":"VEC2"
		},
		{
			"bufferView":3,
			"componentType":5123,
			"count":2538,
			"type":"SCALAR"
		},
		{
			"bufferView":4,
			"componentType":5126,
			"count":706,
			"max":[
				1.0449702739715576,
				1.1593682765960693,
				1.3070166110992432
			],
			"min":[
				-0.6211990118026733,
				-3.0287044048309326,
				-1.109377384185791
			],
			"type":"VEC3"
		},
		{
			"bufferView":5,
			"componentType":5126,
			"count":706,
			"type":"VEC3"
		},
		{
			"bufferView":6,
			"componentType":5126,
			"count":706,
			"type":"VEC2"
		},
		{
			"bufferView":7,
			"componentType":5123,
			"count":1260,
			"type":"SCALAR"
		}
	],
	"bufferViews":[
		{
			"buffer":0,
			"byteLength":17040,
			"byteOffset":0,
			"target":34962
		},
		{
			"buffer":0,
			"byteLength":17040,
			"byteOffset":17040,
			"target":34962
		},
		{
			"buffer":0,
			"byteLength":11360,
			"byteOffset":34080,
			"target":34962
		},
		{
			"buffer":0,
			"byteLength":5076,
			"byteOffset":45440,
			"target":34963
		},
		{
			"buffer":0,
			"byteLength":8472,
			"byteOffset":50516,
			"target":34962
		},
		{
			"buffer":0,
			"byteLength":8472,
			"byteOffset":58988,
			"target":34962
		},
		{
			"buffer":0,
			"byteLength":5648,
			"byteOffset":67460,
			"target":34962
		},
		{
			"buffer":0,
			"byteLength":2520,
			"byteOffset":73108,
			"target":34963
		}
	],
	"buffers":[
		{
			"byteLength":75628,
			"uri":"ElectromagneticGun2.bin"
		}
	]
}
