{
	"asset":{
		"generator":"Khronos glTF Blender I/O v3.6.27",
		"version":"2.0"
	},
	"scene":0,
	"scenes":[
		{
			"name":"Scene",
			"nodes":[
				1
			]
		}
	],
	"nodes":[
		{
			"name":"ShotPoint",
			"scale":[
				0.832489013671875,
				0.6847702264785767,
				0.12285161763429642
			],
			"translation":[
				-0.3694281578063965,
				3.0718448162078857,
				-1.5493433475494385
			]
		},
		{
			"children":[
				0
			],
			"mesh":0,
			"name":"Cube.002",
			"rotation":[
				0.22958940267562866,
				0,
				0,
				0.9732875823974609
			],
			"scale":[
				1.3141850233078003,
				1.3141850233078003,
				7.363990306854248
			]
		}
	],
	"meshes":[
		{
			"name":"Cube.002",
			"primitives":[
				{
					"attributes":{
						"POSITION":0,
						"NORMAL":1,
						"TEXCOORD_0":2
					},
					"indices":3
				}
			]
		}
	],
	"accessors":[
		{
			"bufferView":0,
			"componentType":5126,
			"count":659,
			"max":[
				0.6677353978157043,
				5.505995750427246,
				0.5555804371833801
			],
			"min":[
				-1.3322662115097046,
				-0.7800211906433105,
				-1.5777391195297241
			],
			"type":"VEC3"
		},
		{
			"bufferView":1,
			"componentType":5126,
			"count":659,
			"type":"VEC3"
		},
		{
			"bufferView":2,
			"componentType":5126,
			"count":659,
			"type":"VEC2"
		},
		{
			"bufferView":3,
			"componentType":5123,
			"count":1464,
			"type":"SCALAR"
		}
	],
	"bufferViews":[
		{
			"buffer":0,
			"byteLength":7908,
			"byteOffset":0,
			"target":34962
		},
		{
			"buffer":0,
			"byteLength":7908,
			"byteOffset":7908,
			"target":34962
		},
		{
			"buffer":0,
			"byteLength":5272,
			"byteOffset":15816,
			"target":34962
		},
		{
			"buffer":0,
			"byteLength":2928,
			"byteOffset":21088,
			"target":34963
		}
	],
	"buffers":[
		{
			"byteLength":24016,
			"uri":"ElectromagneticGun.bin"
		}
	]
}
