{
	"asset":{
		"generator":"Khronos glTF Blender I/O v3.6.27",
		"version":"2.0"
	},
	"scene":0,
	"scenes":[
		{
			"name":"Scene",
			"nodes":[
				0
			]
		}
	],
	"nodes":[
		{
			"mesh":0,
			"name":"Plane",
			"scale":[
				178.4400634765625,
				0.8922002911567688,
				178.4400634765625
			],
			"translation":[
				0.02551725134253502,
				-0.03199923038482666,
				0.015284910798072815
			]
		}
	],
	"materials":[
		{
			"doubleSided":true,
			"name":"Material",
			"pbrMetallicRoughness":{
				"baseColorTexture":{
					"index":0
				},
				"metallicFactor":0,
				"roughnessFactor":0.5
			}
		}
	],
	"meshes":[
		{
			"name":"Plane.003",
			"primitives":[
				{
					"attributes":{
						"POSITION":0,
						"NORMAL":1,
						"TEXCOORD_0":2
					},
					"indices":3,
					"material":0
				}
			]
		}
	],
	"textures":[
		{
			"sampler":0,
			"source":0
		}
	],
	"images":[
		{
			"mimeType":"image/png",
			"name":"GroundDesert",
			"uri":"GroundDesert.png"
		}
	],
	"accessors":[
		{
			"bufferView":0,
			"componentType":5126,
			"count":1089,
			"max":[
				0.9166667461395264,
				2.799999713897705,
				0.9166667461395264
			],
			"min":[
				-0.9166667461395264,
				-2.799999713897705,
				-0.9166667461395264
			],
			"type":"VEC3"
		},
		{
			"bufferView":1,
			"componentType":5126,
			"count":1089,
			"type":"VEC3"
		},
		{
			"bufferView":2,
			"componentType":5126,
			"count":1089,
			"type":"VEC2"
		},
		{
			"bufferView":3,
			"componentType":5123,
			"count":6144,
			"type":"SCALAR"
		}
	],
	"bufferViews":[
		{
			"buffer":0,
			"byteLength":13068,
			"byteOffset":0,
			"target":34962
		},
		{
			"buffer":0,
			"byteLength":13068,
			"byteOffset":13068,
			"target":34962
		},
		{
			"buffer":0,
			"byteLength":8712,
			"byteOffset":26136,
			"target":34962
		},
		{
			"buffer":0,
			"byteLength":12288,
			"byteOffset":34848,
			"target":34963
		}
	],
	"samplers":[
		{
			"magFilter":9729,
			"minFilter":9987
		}
	],
	"buffers":[
		{
			"byteLength":47136,
			"uri":"TestStage.bin"
		}
	]
}
