{
	"asset":{
		"generator":"Khronos glTF Blender I/O v3.6.27",
		"version":"2.0"
	},
	"scene":0,
	"scenes":[
		{
			"name":"Scene",
			"nodes":[
				1
			]
		}
	],
	"nodes":[
		{
			"name":"HitPoint",
			"translation":[
				0.025517253205180168,
				-3.0978786945343018,
				0.01528491172939539
			]
		},
		{
			"children":[
				0
			],
			"mesh":0,
			"name":"Sphere.001",
			"scale":[
				3.0976901054382324,
				3.0976901054382324,
				3.0976901054382324
			],
			"translation":[
				0.02551725134253502,
				15.94942569732666,
				0.015284910798072815
			]
		}
	],
	"meshes":[
		{
			"name":"Sphere.003",
			"primitives":[
				{
					"attributes":{
						"POSITION":0,
						"NORMAL":1,
						"TEXCOORD_0":2
					},
					"indices":3
				}
			]
		}
	],
	"accessors":[
		{
			"bufferView":0,
			"componentType":5126,
			"count":3072,
			"max":[
				1.429168462753296,
				1.2077739238739014,
				1.3700144290924072
			],
			"min":[
				-1.4291672706604004,
				-8.598478317260742,
				-1.3700153827667236
			],
			"type":"VEC3"
		},
		{
			"bufferView":1,
			"componentType":5126,
			"count":3072,
			"type":"VEC3"
		},
		{
			"bufferView":2,
			"componentType":5126,
			"count":3072,
			"type":"VEC2"
		},
		{
			"bufferView":3,
			"componentType":5123,
			"count":4602,
			"type":"SCALAR"
		}
	],
	"bufferViews":[
		{
			"buffer":0,
			"byteLength":36864,
			"byteOffset":0,
			"target":34962
		},
		{
			"buffer":0,
			"byteLength":36864,
			"byteOffset":36864,
			"target":34962
		},
		{
			"buffer":0,
			"byteLength":24576,
			"byteOffset":73728,
			"target":34962
		},
		{
			"buffer":0,
			"byteLength":9204,
			"byteOffset":98304,
			"target":34963
		}
	],
	"buffers":[
		{
			"byteLength":107508,
			"uri":"Target.bin"
		}
	]
}
